<svg xmlns="http://www.w3.org/2000/svg" width="334.828" height="390.981" viewBox="0 0 334.828 390.981">
  <g id="icon" transform="translate(-130.844 -114.013)">
    <g id="logo" transform="translate(130.844 114.013)">
      <path id="Path_6" data-name="Path 6" d="M636.07,449.722a9.347,9.347,0,0,1-9.347-9.347V365.552L576.8,333.638a9.347,9.347,0,0,1,.322-15.947L704.735,243.2a9.347,9.347,0,0,1,9.424,16.144L599.752,326.125,641.1,352.558a9.347,9.347,0,0,1,4.313,7.875v79.942A9.347,9.347,0,0,1,636.07,449.722Z" transform="translate(-572.485 -221.21)" fill="#141414"/>
      <path id="Path_7" data-name="Path 7" d="M709.061,423.324A9.3,9.3,0,0,1,704.276,422l-67.992-40.624L586.542,410.4a9.347,9.347,0,0,1-14.058-8.073V280.471a9.347,9.347,0,1,1,18.694,0V386.052l40.451-23.6a9.348,9.348,0,0,1,9.5.049l72.73,43.454a9.348,9.348,0,0,1-4.8,17.372Z" transform="translate(-572.485 -114.052)" fill="#141414"/>
      <path id="Path_8" data-name="Path 8" d="M716.92,417.66a9.339,9.339,0,0,1-4.575-1.2L584.033,344.44a9.347,9.347,0,1,1,9.15-16.3l114.39,64.21V346.022a9.346,9.346,0,0,1,4.619-8.063l71.172-41.737a9.347,9.347,0,1,1,9.456,16.125l-66.553,39.029v56.938a9.347,9.347,0,0,1-9.347,9.347Z" transform="translate(-547.627 -26.679)" fill="#141414"/>
      <path id="Path_9" data-name="Path 9" d="M600.2,362.268a9.348,9.348,0,0,1-4.442-17.577l67.032-36.121V246.832a9.347,9.347,0,0,1,13.987-8.113l127.369,72.854a9.347,9.347,0,1,1-9.282,16.227L681.484,262.946v51.206a9.347,9.347,0,0,1-4.913,8.228l-71.945,38.768A9.3,9.3,0,0,1,600.2,362.268Z" transform="translate(-505.119 -237.485)" fill="#141414"/>
      <path id="Path_10" data-name="Path 10" d="M691.226,532.936a9.348,9.348,0,0,1-4.886-17.321L797.032,447.9l-87.547-51.162-42.793,30a9.347,9.347,0,0,1-10.1.407L599.643,393.7a9.347,9.347,0,0,1-4.614-8.06v-58.9a9.347,9.347,0,0,1,4.667-8.091l56.951-32.945a9.346,9.346,0,0,1,9.992.4l42.935,29.654,101.148-55.9a9.347,9.347,0,0,1,13.868,8.181V406.212a9.347,9.347,0,0,1-18.694,0V283.884l-92.348,51.037a9.347,9.347,0,0,1-9.833-.49l-42.83-29.582-47.162,27.282v48.162l47.157,27.689,42.782-29.991a9.347,9.347,0,0,1,10.081-.416l106.216,62.072a9.347,9.347,0,0,1,.161,16.043L696.094,531.561A9.3,9.3,0,0,1,691.226,532.936Z" transform="translate(-489.762 -159.669)" fill="#141414"/>
      <path id="Path_11" data-name="Path 11" d="M638.932,362.954a9.347,9.347,0,0,1-9.347-9.347V281.621a9.347,9.347,0,1,1,18.693,0v71.986A9.347,9.347,0,0,1,638.932,362.954Z" transform="translate(-362.964 -95.435)" fill="#141414"/>
      <path id="Path_12" data-name="Path 12" d="M694.591,319.2a9.3,9.3,0,0,1-4.965-1.435L617.5,272.427a9.347,9.347,0,0,1,9.948-15.827l72.123,45.336a9.348,9.348,0,0,1-4.983,17.261Z" transform="translate(-423.348 -172.61)" fill="#141414"/>
    </g>
  </g>
</svg>
