<svg xmlns="http://www.w3.org/2000/svg" width="1047.396" height="232.903" viewBox="0 0 1047.396 232.903">
  <g id="logo" transform="translate(-130.844 -114.013)">
    <g id="logo-2" data-name="logo" transform="translate(130.844 114.013)">
      <path id="Path_6" data-name="Path 6" d="M610.362,365.705a5.568,5.568,0,0,1-5.568-5.568V315.566l-29.74-19.011a5.568,5.568,0,0,1,.192-9.5l76.019-44.375a5.568,5.568,0,0,1,5.614,9.617L588.728,292.08l24.633,15.746a5.568,5.568,0,0,1,2.569,4.691v47.621A5.568,5.568,0,0,1,610.362,365.705Z" transform="translate(-572.485 -229.583)" fill="#ffd800"/>
      <path id="Path_7" data-name="Path 7" d="M653.842,361.788a5.54,5.54,0,0,1-2.85-.789l-40.5-24.2-29.63,17.29a5.568,5.568,0,0,1-8.374-4.809V276.692a5.568,5.568,0,1,1,11.136,0v62.893l24.1-14.061a5.569,5.569,0,0,1,5.662.029L656.7,351.44a5.568,5.568,0,0,1-2.861,10.348Z" transform="translate(-572.485 -177.558)" fill="#ffd800"/>
      <path id="Path_8" data-name="Path 8" d="M661.262,368.042a5.563,5.563,0,0,1-2.725-.713l-76.434-42.9a5.568,5.568,0,1,1,5.451-9.71l68.141,38.249v-27.6a5.567,5.567,0,0,1,2.751-4.8l42.4-24.863a5.568,5.568,0,1,1,5.633,9.606L666.83,328.557v33.917a5.568,5.568,0,0,1-5.568,5.568Z" transform="translate(-560.416 -135.138)" fill="#ffd800"/>
      <path id="Path_9" data-name="Path 9" d="M596.417,311.817a5.568,5.568,0,0,1-2.646-10.47L633.7,279.83V243.053a5.568,5.568,0,0,1,8.332-4.833l75.872,43.4a5.568,5.568,0,1,1-5.529,9.666l-67.54-38.633v30.5a5.568,5.568,0,0,1-2.927,4.9l-42.857,23.094A5.542,5.542,0,0,1,596.417,311.817Z" transform="translate(-539.779 -237.485)" fill="#ffd800"/>
      <path id="Path_10" data-name="Path 10" d="M652.332,422.056a5.568,5.568,0,0,1-2.911-10.318L715.36,371.4l-52.151-30.477-25.491,17.87a5.568,5.568,0,0,1-6.015.242l-33.925-19.919a5.568,5.568,0,0,1-2.749-4.8V299.228a5.568,5.568,0,0,1,2.78-4.819l33.925-19.625a5.567,5.567,0,0,1,5.952.238l25.576,17.665,60.253-33.3a5.568,5.568,0,0,1,8.261,4.873v82.308a5.568,5.568,0,0,1-11.136,0V273.7L665.63,304.1a5.568,5.568,0,0,1-5.857-.292l-25.513-17.622-28.094,16.252v28.69l28.091,16.494,25.485-17.865a5.568,5.568,0,0,1,6.005-.248l63.272,36.976a5.568,5.568,0,0,1,.1,9.557l-73.881,45.2A5.542,5.542,0,0,1,652.332,422.056Z" transform="translate(-532.323 -199.705)" fill="#ffd800"/>
      <path id="Path_11" data-name="Path 11" d="M635.153,326.291a5.568,5.568,0,0,1-5.568-5.568V277.842a5.568,5.568,0,1,1,11.135,0v42.881A5.568,5.568,0,0,1,635.153,326.291Z" transform="translate(-470.762 -166.933)" fill="#ffd800"/>
      <path id="Path_12" data-name="Path 12" d="M661.655,293.309a5.541,5.541,0,0,1-2.958-.855l-42.963-27.006a5.568,5.568,0,0,1,5.926-9.428l42.963,27.006a5.568,5.568,0,0,1-2.968,10.282Z" transform="translate(-500.079 -205.988)" fill="#ffd800"/>
    </g>
    <path id="Path_5" data-name="Path 5" d="M2.368-22.336C2.368-9.856,11.2-.9,22.528.256V7.424h3.52c2.24,0,3.584.448,3.584,2.368s-1.344,2.368-3.584,2.368H19.072v4.608H27.52c4.544,0,8.128-2.624,8.128-6.976,0-4.416-3.584-6.72-8.32-6.72V.32c8.32-.7,15.3-5.248,18.432-13.248H36.992c-2.368,4.736-6.592,6.976-11.9,6.976-8.832,0-15.232-6.336-15.232-16.384s6.4-16.32,15.232-16.32c5.312,0,9.536,2.24,11.9,6.976H45.76c-3.392-8.7-11.392-13.376-20.672-13.376C12.544-45.056,2.368-35.648,2.368-22.336ZM84.288,0h7.68L76.032-44.544H67.584L51.648,0h7.616l3.2-9.088H81.088ZM79.04-15.04H64.512l7.3-20.672Zm49.088-29.5v33.152L106.176-44.544h-7.3V0h7.3V-33.216L128.128,0h7.3V-44.544ZM169.536,0h9.536L159.424-22.208,178.752-44.48H169.6L152.32-24.192V-44.48h-7.3V0h7.3V-19.9Zm46.016,0h7.68L207.3-44.544h-8.448L182.912,0h7.616l3.2-9.088h18.624ZM210.3-15.04H195.776l7.3-20.672Zm30.784-1.088V0h7.3V-16.128L263.1-44.48H255.04l-10.3,21.824-10.3-21.824H226.3ZM298.88,0h7.68L290.624-44.544h-8.448L266.24,0h7.616l3.2-9.088H295.68Zm-5.248-15.04H279.1l7.3-20.672Zm36.416-1.216c0,11.328,7.936,16.7,17.28,16.7,9.28,0,17.472-5.376,17.472-16.7V-44.48h-7.3v28.352c0,6.912-3.9,10.176-10.112,10.176-6.144,0-10.048-3.264-10.048-10.176V-44.48h-7.3Zm11.84-32.7a3.811,3.811,0,0,0,3.84-3.84,3.851,3.851,0,0,0-3.84-3.84,3.811,3.811,0,0,0-3.84,3.84A3.771,3.771,0,0,0,341.888-48.96Zm11.008,0a3.811,3.811,0,0,0,3.84-3.84,3.851,3.851,0,0,0-3.84-3.84,3.811,3.811,0,0,0-3.84,3.84A3.771,3.771,0,0,0,352.9-48.96Zm50.624,4.416v33.152L381.568-44.544h-7.3V0h7.3V-33.216L403.52,0h7.3V-44.544ZM420.416,0h7.3V-44.48h-7.3Zm3.648-48.96a3.811,3.811,0,0,0,3.84-3.84,3.851,3.851,0,0,0-3.84-3.84,3.811,3.811,0,0,0-3.84,3.84A3.771,3.771,0,0,0,424.064-48.96ZM454.72-7.488,441.536-44.48h-7.808L450.5,0h8.448l16.7-44.48h-7.68ZM506.3-44.544H481.728V0H506.3V-5.952h-17.28V-19.584h15.36v-5.952h-15.36V-38.592H506.3ZM538.88-31.168c0,4.416-2.56,7.552-8.256,7.552H522.56V-38.528h8.064C536.32-38.528,538.88-35.648,538.88-31.168ZM515.264-44.48V0h7.3V-17.792h5.568L538.368,0h8.7L536.064-18.432c7.488-1.856,10.3-7.488,10.3-12.736,0-7.232-5.184-13.312-15.744-13.312Zm70.464,31.872c0-16.256-23.552-9.984-23.552-20.032,0-4.288,3.264-6.336,7.488-6.208,4.608.128,7.232,2.88,7.488,5.888h8.064c-.64-7.616-6.656-12.1-15.168-12.1-9.088,0-15.3,4.864-15.3,12.672,0,16.384,23.616,9.408,23.616,20.16,0,3.776-2.88,6.528-8,6.528-5.056,0-7.616-2.944-7.936-6.592h-7.808c0,7.872,6.848,12.736,15.744,12.736C580.288.448,585.728-5.952,585.728-12.608ZM594.368,0h7.3V-44.48h-7.3Zm3.648-48.96a3.811,3.811,0,0,0,3.84-3.84,3.851,3.851,0,0,0-3.84-3.84,3.811,3.811,0,0,0-3.84,3.84A3.771,3.771,0,0,0,598.016-48.96ZM608.96-38.528h11.9V0h7.3V-38.528H640V-44.48H608.96Zm62.976-6.016H647.36V0h24.576V-5.952h-17.28V-19.584h15.36v-5.952h-15.36V-38.592h17.28Zm38.976,31.936c0-16.256-23.552-9.984-23.552-20.032,0-4.288,3.264-6.336,7.488-6.208,4.608.128,7.232,2.88,7.488,5.888H710.4c-.64-7.616-6.656-12.1-15.168-12.1-9.088,0-15.3,4.864-15.3,12.672,0,16.384,23.616,9.408,23.616,20.16,0,3.776-2.88,6.528-8,6.528-5.056,0-7.616-2.944-7.936-6.592h-7.808c0,7.872,6.848,12.736,15.744,12.736C705.472.448,710.912-5.952,710.912-12.608ZM719.552,0h7.3V-44.48h-7.3ZM723.2-48.96a3.811,3.811,0,0,0,3.84-3.84,3.851,3.851,0,0,0-3.84-3.84,3.811,3.811,0,0,0-3.84,3.84A3.771,3.771,0,0,0,723.2-48.96ZM29.888,70.264c0,4.288-3.008,6.784-7.936,6.784H12.1V63.16h9.6C26.56,63.16,29.888,65.848,29.888,70.264ZM28.736,50.872c0,4.1-2.88,6.336-7.616,6.336H12.1V44.472H21.12C25.856,44.472,28.736,46.84,28.736,50.872Zm8.448,20.16c0-5.312-3.84-10.048-8.576-10.88,4.288-1.536,7.552-4.8,7.552-10.176,0-6.272-4.992-11.456-14.4-11.456H4.8V83H22.592C31.68,83,37.184,77.816,37.184,71.032ZM45.12,38.52V83H67.456V77.112H52.416V38.52Zm71.424,22.144c0-13.312-10.048-22.72-22.72-22.72-12.544,0-22.72,9.408-22.72,22.72,0,13.376,10.176,22.784,22.72,22.784C106.5,83.448,116.544,74.04,116.544,60.664Zm-37.952,0c0-10.048,6.4-16.32,15.232-16.32s15.232,6.272,15.232,16.32-6.4,16.448-15.232,16.448S78.592,70.712,78.592,60.664Zm42.688,0c0,13.376,10.176,22.72,22.72,22.72,9.28,0,17.28-4.608,20.672-13.312H155.9c-2.368,4.736-6.592,6.976-11.9,6.976-8.832,0-15.232-6.336-15.232-16.384s6.4-16.32,15.232-16.32c5.312,0,9.536,2.24,11.9,6.976h8.768C161.28,42.616,153.28,37.944,144,37.944,131.456,37.944,121.28,47.352,121.28,60.664ZM197.7,83h9.536L187.584,60.792,206.912,38.52H197.76L180.48,58.808V38.52h-7.3V83h7.3V63.1Zm13.568-22.336c0,13.376,10.176,22.72,22.72,22.72,9.28,0,17.28-4.608,20.672-13.312h-8.768c-2.368,4.736-6.592,6.976-11.9,6.976-8.832,0-15.232-6.336-15.232-16.384s6.4-16.32,15.232-16.32c5.312,0,9.536,2.24,11.9,6.976h8.768c-3.392-8.7-11.392-13.376-20.672-13.376C221.44,37.944,211.264,47.352,211.264,60.664ZM291.392,83h7.3V38.52h-7.3V57.592H270.464V38.52h-7.3V83h7.3V63.544h20.928ZM338.3,83h7.68L330.048,38.456H321.6L305.664,83h7.616l3.2-9.088H335.1Zm-5.248-15.04H318.528l7.3-20.672ZM352.9,83h7.3V38.52h-7.3ZM399.04,38.456V71.608L377.088,38.456h-7.3V83h7.3V49.784L399.04,83h7.3V38.456Zm31.232,6.016h11.9V83h7.3V44.472h11.84V38.52h-31.04ZM511.68,60.664c0-13.312-10.048-22.72-22.72-22.72-12.544,0-22.72,9.408-22.72,22.72,0,13.376,10.176,22.784,22.72,22.784C501.632,83.448,511.68,74.04,511.68,60.664Zm-37.952,0c0-10.048,6.4-16.32,15.232-16.32s15.232,6.272,15.232,16.32-6.4,16.448-15.232,16.448S473.728,70.712,473.728,60.664ZM526.144,59V44.472h8.064c5.7,0,8.256,2.688,8.256,7.3,0,4.48-2.56,7.232-8.256,7.232Zm23.808-7.232c0-7.232-5.184-13.248-15.744-13.248h-15.36V83h7.3V64.952h8.064C545.792,64.952,549.952,58.1,549.952,51.768Zm6.976-13.248V83h22.336V77.112h-15.04V38.52ZM585.28,66.744c0,11.328,7.936,16.7,17.28,16.7,9.28,0,17.472-5.376,17.472-16.7V38.52h-7.3V66.872c0,6.912-3.9,10.176-10.112,10.176-6.144,0-10.048-3.264-10.048-10.176V38.52h-7.3ZM629.5,38.52V83H651.84V77.112H636.8V38.52Zm28.352,28.224c0,11.328,7.936,16.7,17.28,16.7,9.28,0,17.472-5.376,17.472-16.7V38.52h-7.3V66.872c0,6.912-3.9,10.176-10.112,10.176-6.144,0-10.048-3.264-10.048-10.176V38.52h-7.3Zm64.512-28.8c-12.544,0-22.72,9.408-22.72,22.72,0,13.376,10.176,22.72,22.72,22.72a21.93,21.93,0,0,0,22.016-19.072v-5.7H719.872V64.44h16.7c-1.088,7.488-6.144,12.352-14.208,12.352-8.832,0-15.232-6.336-15.232-16.128s6.4-16.064,15.232-16.064c5.312,0,9.536,2.24,11.9,6.72h8.768C739.648,42.616,731.648,37.944,722.368,37.944Zm9.28-11.328V25.208h-4.224c0,2.88-1.28,4.608-5.44,4.608s-5.44-1.728-5.44-4.608h-4.16v1.344c0,5.312,3.584,8.96,9.6,8.96C728.064,35.512,731.648,31.928,731.648,26.616Zm19.84,40.128c0,11.328,7.936,16.7,17.28,16.7,9.28,0,17.472-5.376,17.472-16.7V38.52h-7.3V66.872c0,6.912-3.9,10.176-10.112,10.176-6.144,0-10.048-3.264-10.048-10.176V38.52h-7.3Z" transform="translate(392 211)" fill="#fff"/>
  </g>
</svg>
